<svg width="180" height="180" viewBox="0 0 180 180" fill="none" xmlns="http://www.w3.org/2000/svg">
  <defs>
    <linearGradient id="shieldGrad" x1="0%" y1="0%" x2="100%" y2="100%">
      <stop offset="0%" style="stop-color:#4F6EF7"/>
      <stop offset="100%" style="stop-color:#A855F7"/>
    </linearGradient>
    <linearGradient id="shieldGradDark" x1="0%" y1="0%" x2="100%" y2="100%">
      <stop offset="0%" style="stop-color:#6B8AFF"/>
      <stop offset="100%" style="stop-color:#C084FC"/>
    </linearGradient>
    <style>
      @media (prefers-color-scheme: light) {
        .bg { fill: white; }
        .shield { fill: url(#shieldGrad); }
        .layer { stroke: white; }
      }
      @media (prefers-color-scheme: dark) {
        .bg { fill: #111111; }
        .shield { fill: url(#shieldGradDark); }
        .layer { stroke: #111111; }
      }
    </style>
  </defs>
  <rect class="bg" width="180" height="180" rx="37"/>
  <!-- Shield shape -->
  <path class="shield" d="M90 22C90 22 40 48 40 48V95C40 125 62 152 90 162C118 152 140 125 140 95V48L90 22Z"/>
  <!-- Wave layers for the layered proof concept -->
  <path class="layer" d="M55 68C65 62 75 72 85 66C95 60 105 70 115 64" fill="none" stroke-width="5" stroke-linecap="round"/>
  <path class="layer" d="M52 84C62 78 72 88 82 82C92 76 102 86 118 80" fill="none" stroke-width="5" stroke-linecap="round"/>
  <path class="layer" d="M50 100C60 94 70 104 80 98C90 92 100 102 120 96" fill="none" stroke-width="5" stroke-linecap="round"/>
  <path class="layer" d="M53 116C63 110 73 120 83 114C93 108 103 118 117 112" fill="none" stroke-width="5" stroke-linecap="round"/>
  <!-- Checkmark -->
  <path d="M70 100L82 112L112 76" fill="none" stroke="white" stroke-width="7" stroke-linecap="round" stroke-linejoin="round" opacity="0.9"/>
</svg>
